<?xml version="1.0" standalone="no"?>
<!DOCTYPE svg PUBLIC "-//W3C//DTD SVG 20010904//EN"
 "http://www.w3.org/TR/2001/REC-SVG-20010904/DTD/svg10.dtd">
<svg version="1.0" xmlns="http://www.w3.org/2000/svg"
 width="700.000000pt" height="700.000000pt" viewBox="0 0 700.000000 700.000000"
 preserveAspectRatio="xMidYMid meet">
<metadata>
Created by potrace 1.11, written by Peter Selinger 2001-2013
</metadata>
<g transform="translate(0.000000,700.000000) scale(0.100000,-0.100000)"
fill="#000000" stroke="none">
<path d="M1707 6444 c-1 -1 -22 -4 -47 -7 -164 -17 -350 -144 -438 -299 -34
-60 -68 -162 -76 -228 -6 -50 -9 -4807 -3 -4830 2 -8 7 -33 12 -55 19 -99 106
-244 189 -314 15 -14 34 -30 40 -36 24 -24 143 -82 206 -100 62 -18 137 -19
1898 -20 1743 -1 1837 0 1904 17 140 37 265 119 345 228 55 75 79 124 104 217
l22 78 0 1792 0 1792 -883 883 -883 883 -1194 0 c-657 1 -1195 0 -1196 -1z"/>
</g>
</svg>
